# File created by Blade
# Date/Time:  Tue Jan 27 18:12:42 2015
# Frame Rate: 120.000 fps
#------------------------------------------------------
:FULLY-SPECIFIED
:DEGREES
4075
root -1.752253 31.861444 -6.584786 5.356653 5.343457 3.056116
Spine -5.926128 -13.395549 -1.461297
Head 18.927413 -12.727874 -5.484431
LeftShoulder -18.546702 18.618785 15.437582
LeftArm 21.379067 -23.435900 -34.965201
LeftForeArm 7.749595 -0.000000 30.734112
LeftHand -14.056323 -0.000000 7.763761
LeftHandThumb1 -26.253704 0.000000 33.147579
RightShoulder -13.421173 -0.421778 -31.896565
RightArm 7.403906 39.892699 43.392232
RightForeArm 1.288711 0.000000 63.733707
RightHand -19.970028 -0.000000 -6.790985
RightHandThumb1 -24.326973 -0.000000 -32.862282
LeftUpLeg -1.048189 1.150325 -0.406670
LeftLeg 1.121056 -0.000000 -0.000000
LeftFoot -17.764744 16.174138 -25.093798
LeftToeBase 8.544231 -0.000000 -0.000000
RightUpLeg 1.050966 -1.815803 -3.097685
RightLeg -2.783727 -0.000000 0.000000
RightFoot -15.517503 -14.403104 9.811650
RightToeBase 5.102617 -0.000000 -0.000000
4076
root -1.750277 31.861076 -6.581641 5.319027 5.429565 3.054734
Spine -5.916127 -13.321867 -1.451266
Head 18.778343 -13.306734 -5.681817
LeftShoulder -18.533292 18.471277 15.743950
LeftArm 21.272016 -23.729054 -34.364303
LeftForeArm 7.645525 -0.000000 29.989732
LeftHand -14.033435 -0.000000 7.834574
LeftHandThumb1 -26.253704 0.000000 33.147579
RightShoulder -13.339501 -0.280925 -32.155915
RightArm 7.974010 39.168332 43.113731
RightForeArm 0.801646 -0.000000 62.277281
RightHand -19.988810 -0.000000 -6.410584
RightHandThumb1 -24.326973 -0.000000 -32.862282
LeftUpLeg -1.024224 1.112807 -0.397691
LeftLeg 1.143046 -0.000000 -0.000000
LeftFoot -17.748638 16.112289 -25.077751
LeftToeBase 8.492367 -0.000000 -0.000000
RightUpLeg 1.108175 -1.808432 -3.097256
RightLeg -2.780842 -0.000000 0.000000
RightFoot -15.544829 -14.456975 9.861103
RightToeBase 5.117114 -0.000000 -0.000000
4077
root -1.746500 31.860490 -6.577709 5.283684 5.524264 3.053989
Spine -5.909928 -13.236943 -1.442444
Head 18.628188 -13.904836 -5.864541
LeftShoulder -18.480264 18.373802 16.017455
LeftArm 21.162681 -24.012756 -33.723074
LeftForeArm 7.631857 -0.000000 29.208901
LeftHand -14.109377 -0.000000 7.876186
LeftHandThumb1 -26.253704 0.000000 33.147579
RightShoulder -13.283705 -0.121441 -32.420721
RightArm 8.493369 38.479531 42.846598
RightForeArm -0.056847 -0.000000 60.871097
RightHand -20.047040 -0.000000 -5.707298
RightHandThumb1 -24.326973 -0.000000 -32.862282
LeftUpLeg -0.995684 1.031580 -0.392733
LeftLeg 1.156119 -0.000000 -0.000000
LeftFoot -17.765658 16.085487 -25.096967
LeftToeBase 8.541847 -0.000000 -0.000000
RightUpLeg 1.162021 -1.855529 -3.097023
RightLeg -2.767235 -0.000000 0.000000
RightFoot -15.569578 -14.474734 9.894204
RightToeBase 5.045974 -0.000000 -0.000000
4078
root -1.740123 31.859662 -6.575363 5.253072 5.592205 3.075697
Spine -5.904207 -13.143294 -1.454418
Head 18.485178 -14.514889 -6.066489
LeftShoulder -18.479167 18.307889 16.246161
LeftArm 21.097408 -24.217556 -33.037814
LeftForeArm 7.397365 -0.000000 28.405589
LeftHand -14.287673 0.000000 8.119208
LeftHandThumb1 -26.253704 0.000000 33.147579
RightShoulder -13.165784 0.100070 -32.688141
RightArm 8.893119 37.826318 42.555537
RightForeArm -0.976393 -0.000000 59.509026
RightHand -19.939150 -0.000000 -5.286269
RightHandThumb1 -24.326973 -0.000000 -32.862282
LeftUpLeg -0.971773 0.989586 -0.420153
LeftLeg 1.170696 -0.000000 -0.000000
LeftFoot -17.748590 16.077392 -25.041923
LeftToeBase 8.519630 -0.000000 -0.000000
RightUpLeg 1.216336 -1.838692 -3.124791
RightLeg -2.775869 -0.000000 0.000000
RightFoot -15.595538 -14.556402 9.900446
RightToeBase 5.079980 -0.000000 -0.000000
4079
root -1.735903 31.859505 -6.572352 5.213082 5.663501 3.083830
Spine -5.882377 -13.017963 -1.471453
Head 18.347511 -15.150233 -6.226738
LeftShoulder -18.453211 18.157298 16.595481
LeftArm 21.000154 -24.345737 -32.497936
LeftForeArm 7.229452 0.000000 27.719967
LeftHand -14.244063 -0.000000 8.042725
LeftHandThumb1 -26.253704 0.000000 33.147579
RightShoulder -13.072526 0.308174 -32.949638
RightArm 9.256750 37.200017 42.317449
RightForeArm -2.216244 -0.000000 58.211734
RightHand -19.934730 -0.000000 -4.903859
RightHandThumb1 -24.326973 -0.000000 -32.862282
LeftUpLeg -0.942947 0.968865 -0.429144
LeftLeg 1.192399 -0.000000 -0.000000
LeftFoot -17.741574 16.034051 -25.030787
LeftToeBase 8.489586 -0.000000 -0.000000
RightUpLeg 1.271680 -1.855723 -3.135599
RightLeg -2.767070 -0.000000 0.000000
RightFoot -15.618385 -14.597399 9.910519
RightToeBase 5.038331 -0.000000 -0.000000
4080
root -1.733462 31.858899 -6.568676 5.180704 5.737183 3.082484
Spine -5.868761 -12.901386 -1.469948
Head 18.192458 -15.823417 -6.426094
LeftShoulder -18.424296 18.045261 16.868105
LeftArm 20.902809 -24.498555 -31.897757
LeftForeArm 7.003891 -0.000000 26.965512
LeftHand -14.473994 -0.000000 8.353799
LeftHandThumb1 -26.253704 0.000000 33.147579
RightShoulder -13.023271 0.446177 -33.204057
RightArm 9.726785 36.631647 42.183525
RightForeArm -3.698543 0.000000 56.938230
RightHand -19.910905 -0.000000 -4.364191
RightHandThumb1 -24.326973 -0.000000 -32.862282
LeftUpLeg -0.917382 0.939291 -0.422426
LeftLeg 1.205972 -0.000000 -0.000000
LeftFoot -17.734696 15.974425 -25.037367
LeftToeBase 8.496507 -0.000000 -0.000000
RightUpLeg 1.313145 -1.934941 -3.133673
RightLeg -2.746543 -0.000000 0.000000
RightFoot -15.644592 -14.587032 9.918655
RightToeBase 5.071151 -0.000000 -0.000000
4081
root -1.728470 31.858323 -6.565376 5.150858 5.805551 3.099269
Spine -5.849603 -12.773834 -1.493329
Head 18.026761 -16.488921 -6.585641
LeftShoulder -18.413216 17.939273 17.089693
LeftArm 20.857884 -24.578553 -31.205024
LeftForeArm 6.863346 -0.000000 26.094688
LeftHand -14.359818 -0.000000 8.354388
LeftHandThumb1 -26.253704 0.000000 33.147579
RightShoulder -12.983497 0.609384 -33.448457
RightArm 10.174844 36.028328 42.042097
RightForeArm -5.432398 -0.000000 55.635872
RightHand -19.775248 -0.000000 -4.109886
RightHandThumb1 -24.326973 -0.000000 -32.862282
LeftUpLeg -0.889020 0.878710 -0.439395
LeftLeg 1.211227 -0.000000 -0.000000
LeftFoot -17.727956 15.967390 -25.014486
LeftToeBase 8.496986 -0.000000 -0.000000
RightUpLeg 1.363475 -1.958708 -3.154619
RightLeg -2.745220 -0.000000 0.000000
RightFoot -15.666839 -14.612048 9.935315
RightToeBase 5.030433 -0.000000 -0.000000
